
<svg width="36px" height="32px" viewBox="0 0 36 32" version="1.1" xmlns="http://www.w3.org/2000/svg" xmlns:xlink="http://www.w3.org/1999/xlink">
    <!-- Generator: Sketch 46.1 (44463) - http://www.bohemiancoding.com/sketch -->
    <desc>Created with Sketch.</desc>
    <defs></defs>
    <g id="Page-1" stroke="none" stroke-width="1" fill="none" fill-rule="evenodd">
        <g id="financas" transform="translate(1.000000, 1.000000)" stroke="#000000" stroke-width="0.5" fill-rule="nonzero">
            <path d="M16.4199852,6.76877037 L16.4199852,9.15682963 C16.4190617,10.3930864 12.7434519,11.3955407 8.21003457,11.3955407 C3.67569383,11.3956247 0.00100740741,10.3930864 0,9.15691358 L0,6.76877037 C0,8.00536296 3.67569383,9.00773333 8.20995062,9.00773333 C12.7443753,9.00781728 16.4199852,8.00544691 16.4199852,6.76877037 Z M16.4199852,6.31661235 C16.4199852,7.55345679 12.7443753,8.55582716 8.21003457,8.55582716 C3.67569383,8.55582716 0,7.55345679 0,6.31661235 C0,5.0799358 3.67569383,4.07764938 8.20995062,4.07764938 C12.7443753,4.07756543 16.4199852,5.0799358 16.4199852,6.31661235 Z M12.1730914,6.18925926 L4.96080988,5.69705679 L4.71567407,6.13779753 L4.98305679,6.17498765 C5.34950123,6.22661728 5.81475556,6.33961481 5.59883457,6.7248642 L5.53159012,6.84474568 L6.86472593,6.9356642 L6.93197037,6.81553086 C7.02465185,6.64905679 7.05327901,6.50659259 7.01835556,6.3848642 L11.8785926,6.71630123 L12.1730914,6.18925926 Z M8.20995062,12.0056938 C3.67569383,12.0056938 0,11.0033235 0,9.76647901 L0,12.1547901 C0.00100740741,13.3910469 3.67569383,14.3935852 8.20995062,14.3935852 C12.7433679,14.3935852 16.4189778,13.3910469 16.4199012,12.1547901 L16.4199012,9.76647901 C16.4199852,11.0033235 12.7437877,12.0056938 8.20995062,12.0056938 Z M8.20995062,15.0206123 C3.67569383,15.0206123 0,14.0179901 0,12.7814815 L0,15.1699605 C0.00100740741,16.4056296 3.67569383,17.407916 8.20995062,17.407916 C12.7433679,17.407916 16.4189778,16.4056296 16.4199012,15.1699605 L16.4199012,12.7814815 C16.4199852,14.0179901 12.7437877,15.0206123 8.20995062,15.0206123 Z M8.20995062,17.9836494 C3.67569383,17.9836494 0,16.9811951 0,15.7441827 L0,18.1329136 C0.00100740741,19.3685827 3.67569383,20.3714568 8.20995062,20.3714568 C12.7433679,20.3714568 16.4189778,19.3685827 16.4199012,18.1329136 L16.4199012,15.7441827 C16.4199852,16.9826222 12.7437877,17.9836494 8.20995062,17.9836494 Z M8.20995062,20.9112593 C3.67569383,20.9112593 0,19.9083852 0,18.6717926 L0,21.059516 C0.00100740741,22.2961086 3.67569383,23.298479 8.20995062,23.298479 C12.7433679,23.298479 16.4189778,22.2961926 16.4199012,21.059516 L16.4199012,18.6717926 C16.4199852,19.9083852 12.7437877,20.9112593 8.20995062,20.9112593 Z M8.20995062,23.8328247 C3.67569383,23.8328247 0,22.8304543 0,21.593358 L0,23.9820889 C0.00100740741,25.2179259 3.67569383,26.2206321 8.20995062,26.2206321 C12.7433679,26.2206321 16.4189778,25.2179259 16.4199012,23.9820889 L16.4199012,21.593358 C16.4199852,22.8304543 12.7437877,23.8328247 8.20995062,23.8328247 Z M17.5545778,6.9286963 L17.6145185,6.9286963 L17.6145185,6.98930864 C18.9155012,7.22588148 20.4790815,7.36465185 22.1614519,7.36465185 C26.6943654,7.36465185 30.3693877,6.36228148 30.3714025,5.12610864 L30.3714025,2.73779753 C30.3714025,3.97455802 26.6954568,4.97701235 22.1614519,4.97701235 C17.627363,4.97701235 13.9513333,3.97413827 13.9513333,2.73729383 L13.9513333,3.63590123 C15.9214025,4.10955062 17.6145185,4.95728395 17.6145185,6.47620247 C17.6145185,6.63512099 17.5906765,6.78379753 17.5545778,6.9286963 Z M13.9513333,2.2853037 C13.9513333,1.04862716 17.6274469,0.0463407407 22.1614519,0.0463407407 C26.6954568,0.0463407407 30.3714025,1.04862716 30.3714025,2.2853037 C30.3714025,3.5224 26.6954568,4.52493827 22.1614519,4.52493827 C17.627363,4.52493827 13.9513333,3.5224 13.9513333,2.2853037 Z M18.196884,2.41274074 L25.4089975,2.90477531 L25.6548049,2.46445432 L25.3870025,2.4274321 C25.0194667,2.37555062 24.5560593,2.26280494 24.7700494,1.87763951 L24.8385531,1.75700247 L23.5055012,1.66625185 L23.4392642,1.78663704 C23.3454914,1.95319506 23.3170321,2.09582716 23.3518716,2.21755556 L18.4917185,1.88586667 L18.196884,2.41274074 Z M22.1614519,10.3620247 C26.6943654,10.3620247 30.3693877,9.35973827 30.3714025,8.12348148 L30.3714025,5.73517037 C30.3714025,6.97176296 26.6954568,7.97438519 22.1614519,7.97438519 C20.4790815,7.97438519 18.9155012,7.83569877 17.6145185,7.59837037 L17.6145185,9.3165037 C17.6134272,9.53334815 17.5769086,9.73499753 17.5114272,9.92564938 L17.6145185,9.92564938 L17.6145185,9.98626173 C18.9148296,10.223842 20.4790815,10.3620247 22.1614519,10.3620247 Z M17.6145185,13.0021877 C18.9155012,13.2387605 20.4790815,13.3774469 22.1614519,13.3774469 C26.6943654,13.3774469 30.3693877,12.3750765 30.3714025,11.1387358 L30.3714025,8.75067654 C30.3714025,9.98777284 26.6954568,10.9901432 22.1614519,10.9901432 C20.4790815,10.9901432 18.9155012,10.8518765 17.6145185,10.614884 L17.6145185,12.3142963 C17.6134272,12.5381926 17.5730469,12.7461383 17.5041235,12.9413235 L17.6145185,12.9413235 L17.6145185,13.0021877 Z M30.3714025,13.8751062 L30.3714025,11.7139654 C30.3714025,12.4612099 29.0253383,13.120558 26.9635951,13.5273827 C27.8685827,13.5678469 29.1240642,13.6615358 30.3714025,13.8751062 Z M17.6145185,15.0477284 C18.4117975,14.5049877 19.602637,14.1517235 20.8327654,13.9220346 C19.6586321,13.8699012 18.5662667,13.7509432 17.6145185,13.5777531 L17.6145185,15.0477284 Z M25.7135704,19.3236691 C21.1790617,19.3236691 17.5036198,18.3207951 17.5036198,17.0831951 L17.5036198,19.4719259 C17.5058864,20.7085185 21.1799852,21.7109728 25.7135704,21.7109728 C30.2483309,21.7109728 33.9226815,20.7086025 33.9236049,19.4719259 L33.9236049,17.0831951 C33.9242765,18.3207111 30.2483309,19.3236691 25.7135704,19.3236691 Z M25.7135704,14.3935852 C30.2483309,14.3935852 33.9236049,15.3959556 33.9236049,16.6321284 C33.9236049,17.8688049 30.2483309,18.8715951 25.7135704,18.8715951 C21.1790617,18.8715951 17.5036198,17.8688889 17.5036198,16.6321284 C17.5037037,15.3959556 21.1800691,14.3935852 25.7135704,14.3935852 Z M26.905921,16.5636247 L22.045516,16.2320198 L21.751521,16.7593975 L28.9637185,17.2517679 L29.2091901,16.8103556 L28.9418074,16.7740049 C28.5756988,16.7217037 28.1112,16.6092099 28.3260296,16.2232049 L28.3931062,16.1036593 L27.0599704,16.0131605 L26.9940691,16.1327062 C26.8992889,16.299516 26.8703259,16.442316 26.905921,16.5636247 Z M25.7135704,22.3205383 C21.1790617,22.3205383 17.5036198,21.3177481 17.5036198,20.0810716 L17.5036198,22.4703062 C17.5058864,23.7068988 21.1799852,24.709521 25.7135704,24.709521 C30.2483309,24.709521 33.9226815,23.7069827 33.9236049,22.4703062 L33.9236049,20.0825827 C33.9242765,21.3177481 30.2483309,22.3205383 25.7135704,22.3205383 Z M25.7135704,25.3354568 C21.1790617,25.3354568 17.5036198,24.3331704 17.5036198,23.0964938 L17.5036198,25.4848049 C17.5058864,26.7204741 21.1799852,27.7233481 25.7135704,27.7233481 C30.2483309,27.7233481 33.9226815,26.7204741 33.9236049,25.4848049 L33.9236049,23.0964938 C33.9242765,24.3340099 30.2483309,25.3354568 25.7135704,25.3354568 Z M25.7135704,28.3000049 C21.1790617,28.3000049 17.5036198,27.2970469 17.5036198,26.0603704 L17.5036198,28.4491012 C17.5058864,29.6849383 21.1799852,30.6872247 25.7135704,30.6872247 C30.2483309,30.6872247 33.9226815,29.6849383 33.9236049,28.4491012 L33.9236049,26.0603704 C33.9242765,27.296963 30.2483309,28.3000049 25.7135704,28.3000049 Z" id="Shape"></path>
        </g>
    </g>
</svg>
